<svg viewBox="0 0 600 500" fill="none" xmlns="http://www.w3.org/2000/svg">
    <path d="M 300 200 C 300 100, 450 100, 450 200 L 450 500 L 600 500 L 600 300 L 450 150 C 400 100, 350 150, 300 200 Z" fill="#0a0a0a"/>
    <path d="M 300 200 C 300 100, 450 100, 450 200 L 450 400 L 300 400 Z" fill="#0a0a0a"/>
    <path d="M 320 200 C 320 120, 430 120, 430 200 L 430 400 L 320 400 Z" fill="#ffffff"/>
    <polygon points="100,500 100,480 140,480 140,460 180,460 180,440 220,440 220,420 260,420 260,400 450,400 450,500" fill="#0a0a0a"/>
</svg>
