<svg version="1.1" id="Layer_1" xmlns="http://www.w3.org/2000/svg" xmlns:xlink="http://www.w3.org/1999/xlink" x="0px" y="0px"
	 width="100%" viewBox="0 0 512 512" enable-background="new 0 0 1254 1254" xml:space="preserve">
<g transform="translate(-30 -30) scale(0.46)">
	<path fill="#FFF" opacity="1.000000" stroke="none"
	d="
M700.693542,515.306458 
	C754.295471,568.711975 807.645935,621.868958 860.990112,675.032227 
	C864.956787,678.985352 864.890991,681.190247 860.614807,685.486877 
	C807.833923,738.520630 755.039185,791.540527 702.255798,844.571777 
	C658.290100,888.743835 614.341492,932.932922 570.370056,977.099243 
	C558.143127,989.380310 545.877869,1001.623291 533.589905,1013.843262
	C531.387207,1016.033813 528.987732,1018.026428 526.679138,1020.110474
	L400,1020.110474
	L385.329376,1007.701843
	C324.212555,946.986267 262.950562,886.415039 202.143875,825.390198
	C186.504700,809.694885 187.661880,786.441528 202.119583,771.503296
	C231.322098,741.330078 260.883667,711.503418 290.391113,681.626648
	C331.722198,639.778320 373.173828,598.049011 414.509430,556.205139
	C458.069489,512.109375 501.550110,467.935120 545.074219,423.803833 
	C553.965515,414.788513 562.909424,405.825165 571.801819,396.810944 
	C575.582947,392.978027 578.000549,392.857452 581.920715,396.760132 
	C607.427979,422.153381 632.907715,447.574188 658.382751,472.999786 
	C672.415894,487.005768 686.422180,501.038666 700.693542,515.306458 
z"/>
	<path fill="#FFF" d="M180 1021H1076V1068H180Z"/>
	<path fill="#FFF" opacity="1.000000" stroke="none"
	d="
M968.635010,577.635071
	C950.279297,596.065247 932.166687,614.238647 914.081909,632.439697
	C909.934021,636.614258 907.821228,636.731018 903.700928,632.613953
	C849.838867,578.793823 795.995972,524.954529 742.130493,471.137878
	C703.587769,432.630066 665.012512,394.154846 626.467102,355.649811
	C620.213440,349.402710 620.243103,348.025208 626.289612,341.848419
	C661.370911,306.011169 696.484009,270.204773 731.507812,234.311356
	C745.658508,219.809387 772.160217,219.665146 786.876831,234.317657
	C835.283691,282.513672 883.640808,330.759674 932.042725,378.960632
	C962.382874,409.174744 993.068420,439.050323 1022.980530,469.681763
	C1034.154541,481.124512 1036.811035,499.259613 1027.697144,515.705750
	C1025.880737,518.983459 1023.494812,522.071289 1020.868347,524.754211
	C1003.618652,542.374329 986.230896,559.859253 968.635010,577.635071
z"/>

</g>
</svg>